REM MD5 24d717b0e99d3bcb708b849bf4ccc73c
FILE "Pitfall 3D - Beyond the Jungle (USA) (Demo).bin" BINARY
  TRACK 01 MODE2/2352
    INDEX 01 00:00:00
  TRACK 02 AUDIO
    INDEX 00 08:34:31
    INDEX 01 08:36:31
  TRACK 03 AUDIO
    INDEX 00 14:10:30
    INDEX 01 14:12:30
REM LEADOUT 16:06:01
